<?xml version="1.0" encoding="iso-8859-1"?>
<!-- Generator: Adobe Illustrator 19.0.0, SVG Export Plug-In . SVG Version: 6.00 Build 0)  -->
<svg version="1.1" id="Layer_1" xmlns="http://www.w3.org/2000/svg" xmlns:xlink="http://www.w3.org/1999/xlink" x="0px" y="0px"
	 viewBox="0 0 512 512" style="enable-background:new 0 0 512 512;" xml:space="preserve">
<g>
	<g>
		<path d="M327.437,423.93l-7.362-17.585c2.042-11.592,9.322-54.86,13.117-102.924c1.595-20.192,2.404-38.999,2.404-55.897
			c0-17.885-1.707-34.849-5.22-51.859c-5.969-28.905-15.894-51.284-23.87-69.266c-4.578-10.323-8.532-19.237-10.437-26.584
			c-5.262-20.294-5.416-42.662-5.184-52.279c5.795-5.088,9.218-12.465,9.218-20.384C300.103,12.18,287.924,0,272.953,0H239.05
			c-14.971,0-27.151,12.18-27.151,27.151c0,7.92,3.423,15.296,9.218,20.384c0.233,9.617,0.079,31.984-5.184,52.279
			c-1.905,7.348-5.858,16.262-10.437,26.584c-7.976,17.982-17.902,40.361-23.87,69.266c-3.513,17.01-5.22,33.974-5.22,51.859
			c0,16.897,0.809,35.704,2.404,55.897c3.796,48.064,11.075,91.332,13.117,102.924l-7.362,17.586
			c-7.523,17.972-11.339,36.964-11.339,56.448v5.53c0,14.387,11.705,26.092,26.092,26.092h113.364
			c14.387,0,26.092-11.705,26.092-26.092v-5.53C338.775,460.896,334.96,441.903,327.437,423.93z M224.143,134.669
			c4.943-11.144,9.211-20.767,11.536-29.735c7.463-28.787,5.825-59.969,5.614-63.43c-0.216-3.544-2.26-6.72-5.395-8.386
			c-2.22-1.18-3.6-3.466-3.6-5.968c0-3.724,3.029-6.753,6.753-6.753h33.903c3.723,0,6.753,3.029,6.753,6.753
			c0,2.501-1.38,4.786-3.6,5.968c-3.135,1.666-5.179,4.842-5.395,8.386c-0.211,3.462-1.849,34.644,5.614,63.43
			c2.325,8.968,6.594,18.592,11.536,29.735c6.384,14.394,14.083,31.753,19.655,52.859H204.488
			C210.06,166.422,217.758,149.063,224.143,134.669z M200.073,207.927H311.93c2.196,12.941,3.269,25.972,3.269,39.596
			c0,13.726-0.554,28.791-1.649,44.895H198.453c-1.095-16.104-1.649-31.169-1.649-44.895
			C196.804,233.899,197.877,220.868,200.073,207.927z M312.683,491.602H199.319c-3.139,0-5.693-2.554-5.693-5.693v-5.53
			c0-16.765,3.282-33.107,9.757-48.572l6.346-15.16h33.559c5.633,0,10.199-4.567,10.199-10.199c0-5.632-4.566-10.199-10.199-10.199
			h-32.397c-2.549-15.221-7.519-47.246-10.81-83.432h111.841c-4.565,50.186-12.359,92.372-12.444,92.823
			c-0.363,1.954-0.149,3.973,0.619,5.805l8.523,20.362c6.473,15.465,9.756,31.807,9.756,48.572v5.53h0
			C318.376,489.048,315.822,491.602,312.683,491.602z"/>
	</g>
</g>
<g>
	<g>
		<path d="M261.299,262.753h-42.38c-5.633,0-10.199,4.567-10.199,10.199c0,5.632,4.566,10.199,10.199,10.199h42.38
			c5.633,0,10.199-4.567,10.199-10.199C271.498,267.32,266.932,262.753,261.299,262.753z"/>
	</g>
</g>
<g>
	<g>
		<path d="M294.142,262.753h-2.715c-5.633,0-10.199,4.567-10.199,10.199c0,5.632,4.566,10.199,10.199,10.199h2.715
			c5.633,0,10.199-4.567,10.199-10.199C304.341,267.32,299.775,262.753,294.142,262.753z"/>
	</g>
</g>
<g>
</g>
<g>
</g>
<g>
</g>
<g>
</g>
<g>
</g>
<g>
</g>
<g>
</g>
<g>
</g>
<g>
</g>
<g>
</g>
<g>
</g>
<g>
</g>
<g>
</g>
<g>
</g>
<g>
</g>
</svg>
